<svg width="100" height="100" viewBox="0 0 100 100" fill="none" xmlns="http://www.w3.org/2000/svg">
<path d="M50 8.33334C27 8.33334 8.33337 27 8.33337 50C8.33337 73 27 91.6667 50 91.6667C73 91.6667 91.6667 73 91.6667 50C91.6667 27 73 8.33334 50 8.33334ZM50 68.75C39.625 68.75 31.25 60.375 31.25 50C31.25 39.625 39.625 31.25 50 31.25C60.375 31.25 68.75 39.625 68.75 50C68.75 60.375 60.375 68.75 50 68.75ZM50 45.8333C47.7084 45.8333 45.8334 47.7083 45.8334 50C45.8334 52.2917 47.7084 54.1667 50 54.1667C52.2917 54.1667 54.1667 52.2917 54.1667 50C54.1667 47.7083 52.2917 45.8333 50 45.8333Z" fill="white"/>
</svg>
