<svg width="100" height="100" viewBox="0 0 100 100" fill="none" xmlns="http://www.w3.org/2000/svg">
<path fill-rule="evenodd" clip-rule="evenodd" d="M93.75 50C93.75 49.1712 93.4207 48.3764 92.8347 47.7903C92.2486 47.2043 91.4538 46.875 90.625 46.875H16.9187L36.5875 27.2125C36.878 26.922 37.1085 26.577 37.2657 26.1974C37.423 25.8178 37.5039 25.4109 37.5039 25C37.5039 24.5891 37.423 24.1822 37.2657 23.8026C37.1085 23.423 36.878 23.0781 36.5875 22.7875C36.2969 22.497 35.952 22.2665 35.5724 22.1092C35.1927 21.952 34.7859 21.8711 34.375 21.8711C33.9641 21.8711 33.5572 21.952 33.1776 22.1092C32.798 22.2665 32.453 22.497 32.1625 22.7875L7.16247 47.7875C6.87145 48.0778 6.64056 48.4226 6.48302 48.8023C6.32548 49.182 6.24438 49.589 6.24438 50C6.24438 50.4111 6.32548 50.8181 6.48302 51.1977C6.64056 51.5774 6.87145 51.9222 7.16247 52.2125L32.1625 77.2125C32.453 77.5031 32.798 77.7335 33.1776 77.8908C33.5572 78.048 33.9641 78.129 34.375 78.129C34.7859 78.129 35.1927 78.048 35.5724 77.8908C35.952 77.7335 36.2969 77.5031 36.5875 77.2125C36.878 76.922 37.1085 76.577 37.2657 76.1974C37.423 75.8178 37.5039 75.4109 37.5039 75C37.5039 74.5891 37.423 74.1822 37.2657 73.8026C37.1085 73.423 36.878 73.0781 36.5875 72.7875L16.9187 53.125H90.625C91.4538 53.125 92.2486 52.7958 92.8347 52.2097C93.4207 51.6237 93.75 50.8288 93.75 50Z" fill="black"/>
</svg>
