<svg width="100" height="100" viewBox="0 0 100 100" fill="none" xmlns="http://www.w3.org/2000/svg">
<path d="M91.5625 62.8125C91.974 63.5253 92.1906 64.3339 92.1905 65.157C92.1903 65.9801 91.9735 66.7886 91.5617 67.5013C91.15 68.214 90.5578 68.8057 89.8448 69.2169C89.1318 69.6281 88.3231 69.8443 87.5 69.8438C86.6751 69.8524 85.8629 69.6395 85.1483 69.2272C84.4338 68.815 83.8429 68.2185 83.4375 67.5L77.0703 56.4844C73.4847 58.7284 69.6247 60.5008 65.5859 61.7578L67.6172 73.2422C67.7295 73.848 67.7203 74.47 67.59 75.0721C67.4598 75.6743 67.2112 76.2446 66.8586 76.7498C66.5061 77.255 66.0566 77.6851 65.5363 78.0151C65.0161 78.3451 64.4354 78.5683 63.8281 78.6719L63.0078 78.75C61.9078 78.7487 60.8434 78.3605 60.0008 77.6536C59.1581 76.9466 58.5909 75.9658 58.3984 74.8828L56.4062 63.6719C54.2818 63.9442 52.1417 64.0747 50 64.0625C47.8459 64.0539 45.694 63.9235 43.5547 63.6719L41.5625 74.8828C41.37 75.9658 40.8028 76.9466 39.9601 77.6536C39.1175 78.3605 38.053 78.7487 36.9531 78.75L36.1328 78.6719C35.5255 78.5683 34.9448 78.3451 34.4246 78.0151C33.9043 77.6851 33.4548 77.255 33.1023 76.7498C32.7497 76.2446 32.5011 75.6743 32.3709 75.0721C32.2406 74.47 32.2314 73.848 32.3437 73.2422L34.375 61.7578C30.3486 60.5005 26.5016 58.728 22.9297 56.4844L16.5234 67.5781C16.1087 68.2885 15.5159 68.8784 14.8034 69.2894C14.0909 69.7005 13.2835 69.9185 12.4609 69.9219C11.6376 69.9285 10.8279 69.7125 10.1172 69.2969C9.58342 68.9893 9.11552 68.5796 8.74022 68.0911C8.36493 67.6026 8.0896 67.045 7.92997 66.45C7.77034 65.855 7.72955 65.2344 7.80993 64.6237C7.89031 64.013 8.09029 63.424 8.39842 62.8906L15.3906 50.7813C13.0245 48.6794 10.8421 46.3793 8.86717 43.9063C8.43567 43.4349 8.1051 42.8804 7.89576 42.2766C7.68642 41.6729 7.60273 41.0327 7.64984 40.3954C7.69695 39.7582 7.87385 39.1373 8.16969 38.5709C8.46553 38.0045 8.87405 37.5045 9.37016 37.1018C9.86626 36.699 10.4395 36.4019 11.0546 36.2288C11.6697 36.0557 12.3137 36.0102 12.9471 36.095C13.5804 36.1799 14.1897 36.3933 14.7376 36.7223C15.2854 37.0512 15.7602 37.4887 16.1328 38.0078C22.3047 45.625 33.164 54.6875 50 54.6875C66.8359 54.6875 77.6953 45.625 83.8672 38.0078C84.2398 37.4887 84.7146 37.0512 85.2624 36.7223C85.8102 36.3933 86.4196 36.1799 87.0529 36.095C87.6863 36.0102 88.3303 36.0557 88.9454 36.2288C89.5605 36.4019 90.1337 36.699 90.6298 37.1018C91.1259 37.5045 91.5344 38.0045 91.8303 38.5709C92.1261 39.1373 92.303 39.7582 92.3501 40.3954C92.3972 41.0327 92.3135 41.6729 92.1042 42.2766C91.8949 42.8804 91.5643 43.4349 91.1328 43.9063C89.1488 46.3835 86.9671 48.6958 84.6094 50.8203L91.5625 62.8125Z" fill="white"/>
</svg>
