<svg width="88" height="58" viewBox="0 0 88 58" fill="none" xmlns="http://www.w3.org/2000/svg">
<path fill-rule="evenodd" clip-rule="evenodd" d="M0.244415 29C0.244415 29.8288 0.573653 30.6236 1.1597 31.2097C1.74576 31.7957 2.54061 32.125 3.36942 32.125L77.0757 32.125L57.4069 51.7875C57.1164 52.078 56.8859 52.4229 56.7286 52.8026C56.5714 53.1822 56.4905 53.5891 56.4905 54C56.4905 54.4109 56.5714 54.8177 56.7286 55.1974C56.8859 55.577 57.1164 55.9219 57.4069 56.2125C57.6975 56.503 58.0424 56.7335 58.422 56.8907C58.8016 57.048 59.2085 57.1289 59.6194 57.1289C60.0303 57.1289 60.4372 57.048 60.8168 56.8907C61.1964 56.7335 61.5414 56.503 61.8319 56.2125L86.8319 31.2125C87.1229 30.9222 87.3538 30.5773 87.5114 30.1977C87.6689 29.818 87.75 29.411 87.75 29C87.75 28.5889 87.6689 28.1819 87.5114 27.8023C87.3538 27.4226 87.1229 27.0777 86.8319 26.7875L61.8319 1.78746C61.5414 1.49691 61.1964 1.26643 60.8168 1.10919C60.4372 0.951944 60.0303 0.871015 59.6194 0.871015C59.2085 0.871015 58.8016 0.951944 58.422 1.10919C58.0424 1.26643 57.6975 1.49691 57.4069 1.78746C57.1164 2.07801 56.8859 2.42294 56.7286 2.80256C56.5714 3.18218 56.4905 3.58906 56.4905 3.99996C56.4905 4.41086 56.5714 4.81774 56.7286 5.19736C56.8859 5.57698 57.1164 5.92191 57.4069 6.21246L77.0757 25.875L3.36942 25.875C2.54061 25.875 1.74576 26.2042 1.1597 26.7902C0.573653 27.3763 0.244415 28.1712 0.244415 29Z" fill="white"/>
</svg>
