<svg width="100" height="100" viewBox="0 0 100 100" fill="none" xmlns="http://www.w3.org/2000/svg">
<path d="M44.105 55.641L47.703 53.562L43.037 49.637L44.105 55.641Z" fill="#FFFFFF"/>
<path d="M88.558 49.96C88.558 49.075 88.123 48.297 87.461 47.809L87.475 47.785L78.151 42.402L83.518 33.106L83.5 33.095C83.6695 32.7119 83.7464 32.2942 83.7243 31.8758C83.7022 31.4574 83.5819 31.0502 83.373 30.687C83.1626 30.3242 82.8695 30.0161 82.5177 29.7878C82.1658 29.5595 81.7651 29.4174 81.348 29.373V29.347H70.58V18.61H70.558C70.5132 18.1934 70.3709 17.7933 70.1426 17.442C69.9143 17.0907 69.6064 16.7981 69.244 16.588C68.8803 16.3785 68.4722 16.2579 68.053 16.2362C67.6338 16.2145 67.2154 16.2922 66.832 16.463L66.819 16.44L57.338 21.914L52.088 12.82L52.069 12.831C51.8218 12.4927 51.4985 12.2174 51.1251 12.0274C50.7518 11.8373 50.3389 11.7378 49.92 11.737C49.035 11.737 48.256 12.172 47.769 12.834L47.745 12.82L42.408 22.064L33.218 16.758L33.207 16.777C32.8239 16.6075 32.4062 16.5306 31.9878 16.5527C31.5694 16.5748 31.1622 16.6951 30.799 16.904C30.4359 17.1143 30.1276 17.4072 29.8991 17.7591C29.6706 18.111 29.5284 18.5118 29.484 18.929H29.457V29.603H18.845V29.624C18.4284 29.6688 18.0283 29.8111 17.677 30.0394C17.3257 30.2677 17.0331 30.5756 16.823 30.938C16.614 31.3015 16.4937 31.7092 16.4718 32.1279C16.4499 32.5467 16.5271 32.9647 16.697 33.348L16.674 33.362L21.92 42.449L12.526 47.873L12.537 47.892C12.1987 48.1392 11.9234 48.4625 11.7333 48.8358C11.5433 49.2092 11.4438 49.6221 11.443 50.041C11.443 50.926 11.878 51.705 12.54 52.192L12.526 52.216L21.85 57.599L16.483 66.895L16.501 66.905C16.3315 67.2881 16.2546 67.7058 16.2767 68.1242C16.2988 68.5425 16.4191 68.9498 16.628 69.313C16.8384 69.6758 17.1315 69.9839 17.4833 70.2122C17.8352 70.4405 18.2359 70.5826 18.653 70.627V70.654H29.42V81.39H29.442C29.534 82.206 29.991 82.97 30.756 83.412C31.1198 83.6213 31.5279 83.7417 31.947 83.7634C32.3662 83.7851 32.7845 83.7076 33.168 83.537L33.181 83.56L42.662 78.086L47.912 87.18L47.931 87.169C48.1781 87.5073 48.5015 87.7826 48.8748 87.9726C49.2482 88.1627 49.6611 88.2622 50.08 88.263C50.965 88.263 51.744 87.828 52.231 87.167L52.254 87.18L57.591 77.936L66.782 83.242L66.793 83.223C67.1761 83.3925 67.5938 83.4694 68.0122 83.4473C68.4305 83.4252 68.8378 83.3049 69.201 83.096C69.5642 82.8859 69.8726 82.5929 70.1011 82.241C70.3296 81.8891 70.4718 81.4882 70.516 81.071H70.543V70.398H81.156V70.377C81.5725 70.3322 81.9727 70.1899 82.324 69.9616C82.6753 69.7333 82.9679 69.4255 83.178 69.063C83.387 68.6995 83.5073 68.2918 83.5292 67.8731C83.5511 67.4543 83.4739 67.0363 83.304 66.653L83.327 66.64L78.081 57.553L87.475 52.129L87.464 52.11C87.8023 51.8626 88.0776 51.5391 88.2676 51.1656C88.4577 50.7921 88.5572 50.3791 88.558 49.96V49.96ZM37.537 65.197C35.307 66.485 33.285 66.661 31.566 66.199L31.807 63.502C33.109 63.879 34.792 63.877 36.382 62.958C37.749 62.169 38.04 61.193 37.651 60.52C36.492 58.514 30.659 63.75 28.152 59.409C27.044 57.489 27.785 54.938 30.502 53.37C32.335 52.311 34.177 51.987 35.928 52.382L35.619 55.005C34.186 54.681 32.711 55.001 31.535 55.679C30.497 56.279 30.168 57.068 30.568 57.761C31.617 59.577 37.533 54.525 40.019 58.83C41.238 60.939 40.635 63.41 37.537 65.197V65.197ZM51.48 56.871L49.626 55.336L44.679 58.192L45.08 60.566L42.295 62.173L40.08 48.07L43.159 46.293L54.265 55.264L51.48 56.871V56.871ZM55.233 54.705L48.572 43.167L51.046 41.738L56.459 51.113L61.337 48.297L62.586 50.46L55.233 54.705V54.705ZM64.245 49.502L57.584 37.965L65.748 33.25L66.996 35.412L61.289 38.708L62.687 41.13L68.273 37.904L69.521 40.066L63.935 43.291L65.453 45.921L71.161 42.625L72.41 44.787L64.245 49.502V49.502Z" fill="#F24E1E"/>
</svg>
