<svg width="100" height="100" viewBox="0 0 100 100" fill="none" xmlns="http://www.w3.org/2000/svg">
<path d="M6.25 12.5H13.5417L16.6667 25L6.25 12.5ZM16.6667 25L27.0833 66.6667H81.25L91.6667 25H16.6667Z" stroke="black" stroke-width="8.33333" stroke-linecap="round" stroke-linejoin="round"/>
<path d="M27.0834 87.5C30.5352 87.5 33.3334 84.7018 33.3334 81.25C33.3334 77.7982 30.5352 75 27.0834 75C23.6316 75 20.8334 77.7982 20.8334 81.25C20.8334 84.7018 23.6316 87.5 27.0834 87.5Z" stroke="black" stroke-width="8.33333" stroke-linecap="round" stroke-linejoin="round"/>
<path d="M81.25 87.5C84.7018 87.5 87.5 84.7018 87.5 81.25C87.5 77.7982 84.7018 75 81.25 75C77.7982 75 75 77.7982 75 81.25C75 84.7018 77.7982 87.5 81.25 87.5Z" stroke="black" stroke-width="8.33333" stroke-linecap="round" stroke-linejoin="round"/>
<path d="M54.1667 54.1667V37.5M45.8334 45.8333H62.5H45.8334Z" stroke="black" stroke-width="8.33333" stroke-linecap="round" stroke-linejoin="round"/>
</svg>
